<svg width="86" height="86" viewBox="0 0 86 86" fill="none" xmlns="http://www.w3.org/2000/svg">
<g clip-path="url(#clip0_3168_6967)">
<path d="M8.38335 47.1896V19.0161C8.6124 16.7256 10.7197 12.1445 17.3164 12.1445C23.9131 12.1445 55.3391 12.1445 70.2275 12.1445C72.7471 12.8317 77.7863 15.168 77.7863 19.0161C77.7863 22.8642 77.7863 39.4018 77.7863 47.1896M8.38335 47.1896L11.8191 45.8153L15.2549 45.1281H15.9421M8.38335 47.1896L5.67837 51.247C5.64933 51.2906 5.62434 51.3367 5.60372 51.3849L3.57324 56.1226V66.43M77.7863 47.1896L81.2221 51.3125L83.2835 56.1226V66.43M77.7863 47.1896L74.3505 45.8153L70.9147 45.1281M72.289 76.7374V80.1731C72.5181 82.0056 73.9382 85.6704 77.7863 85.6704C81.6344 85.6704 83.0545 82.0056 83.2835 80.1731V76.7374M72.289 76.7374H83.2835M72.289 76.7374H13.8806M83.2835 76.7374V66.43M83.2835 66.43H3.57324M3.57324 66.43V76.7374M3.57324 76.7374H13.8806M3.57324 76.7374V82.2346C4.03135 83.3799 5.63472 85.6704 8.38335 85.6704C11.132 85.6704 13.1935 83.3799 13.8806 82.2346V76.7374M70.9147 45.1281V36.1951C70.4566 34.5917 68.8532 31.3849 66.1046 31.3849C63.356 31.3849 53.0486 31.3849 48.2385 31.3849C46.8642 31.8431 44.1155 33.309 44.1155 35.5079C44.1155 37.7068 44.1155 42.8376 44.1155 45.1281M70.9147 45.1281H44.1155M44.1155 45.1281H42.7412M42.7412 45.1281V35.5079C42.5122 34.1336 41.5044 31.3849 39.3054 31.3849C37.1065 31.3849 25.5623 31.3849 20.065 31.3849C18.6907 31.614 15.9421 32.7593 15.9421 35.5079C15.9421 38.2565 15.9421 43.0666 15.9421 45.1281M42.7412 45.1281H15.9421" stroke="#8B4513" stroke-width="1.7142"/>
</g>
<defs>
<clipPath id="clip0_3168_6967">
<rect width="85.71" height="85.71" fill="white" transform="translate(0.144531 0.144531)"/>
</clipPath>
</defs>
</svg>
