<svg width="87" height="86" viewBox="0 0 87 86" fill="none" xmlns="http://www.w3.org/2000/svg">
<g clip-path="url(#clip0_3168_6920)">
<path d="M36.5743 42.9965H76.7893V13.9889H9.54452L8.88526 42.9965H13.5001M36.5743 42.9965H28.9928M36.5743 42.9965V38.052M13.5001 42.9965H21.4112M13.5001 42.9965V27.8334M21.4112 17.9445H13.5001V23.2186M21.4112 17.9445H28.9928M21.4112 17.9445V23.2186M21.4112 42.9965H28.9928M21.4112 42.9965V38.052M28.9928 42.9965V38.052M28.9928 17.9445H36.5743V23.2186M28.9928 17.9445V22.889M13.5001 23.2186V27.8334M13.5001 23.2186H21.4112M36.5743 23.2186V27.8334M36.5743 23.2186H21.4112M36.5743 27.8334H28.9928M36.5743 27.8334V33.1075V38.052M28.9928 27.8334V22.889M28.9928 27.8334V33.1075M28.9928 22.889V33.1075M28.9928 33.1075V38.052M36.5743 38.052H28.9928M28.9928 38.052H21.4112M21.4112 38.052V27.9983M21.4112 27.9983L13.5001 27.8334M21.4112 27.9983V23.2186M4.92969 8.71484H81.4041V85.8485H76.7893L74.8115 81.2337H11.5223L9.54452 85.8485H4.92969V8.71484Z" stroke="#8B4513" stroke-width="1.7142"/>
<path d="M35.9155 77.2792H28.6636M35.9155 77.2792V61.4569M35.9155 77.2792H47.1229M21.4117 77.2792H8.88574V46.9531H76.7897V77.2792H72.1749M21.4117 77.2792H28.6636M21.4117 77.2792V72.0051M21.4117 57.5013V52.2272H28.6636M21.4117 57.5013H28.6636M21.4117 57.5013V72.0051M35.9155 57.5013V52.2272H28.6636M35.9155 57.5013H28.6636M35.9155 57.5013V61.4569M28.6636 57.5013V61.4569M28.6636 77.2792V72.0051M21.4117 72.0051H28.6636M28.6636 72.0051V61.4569M28.6636 61.4569H35.9155M28.6636 61.4569V52.2272M47.1229 77.2792H51.7378M47.1229 77.2792V69.368M72.1749 77.2792V69.368M72.1749 77.2792H56.3526M51.7378 77.2792V69.368M51.7378 77.2792H56.3526M51.7378 61.4569H47.1229M51.7378 61.4569V69.368M51.7378 61.4569H61.6267M47.1229 61.4569V53.5457H61.6267M47.1229 61.4569V69.368M47.1229 69.368H51.7378M72.1749 69.368V61.4569M72.1749 69.368H66.2415M72.1749 61.4569V53.5457H66.2415M72.1749 61.4569H66.2415M51.7378 69.368H56.3526M56.3526 69.368V77.2792M56.3526 69.368H66.2415M66.2415 69.368V61.4569M66.2415 53.5457H61.6267M66.2415 53.5457V61.4569M61.6267 53.5457V61.4569M61.6267 61.4569H66.2415" stroke="#8B4513" stroke-width="1.7142"/>
<path d="M45.0685 23.2191L43.1668 21.2413L39.8704 20.582L37.2334 23.2191V28.4932L38.5519 29.8117M45.0685 23.2191L38.5519 29.8117M45.0685 23.2191L48.238 26.5154M38.5519 29.8117L41.8482 33.108M41.8482 33.108L51.7372 42.9969H55.6927L59.6483 38.3821L48.238 26.5154M41.8482 33.108L48.238 26.5154" stroke="#8B4513" stroke-width="1.7142"/>
</g>
<defs>
<clipPath id="clip0_3168_6920">
<rect width="85.71" height="85.71" fill="white" transform="translate(0.644531 0.144531)"/>
</clipPath>
</defs>
</svg>
