<svg width="86" height="86" viewBox="0 0 86 86" fill="none" xmlns="http://www.w3.org/2000/svg">
<g clip-path="url(#clip0_3168_6908)">
<path d="M26.4715 24.0417L25.1562 43.1125C25.1562 45.0853 26.34 49.031 31.0748 49.031C35.8096 49.031 49.7071 49.031 56.0641 49.031C57.5985 49.031 60.6674 47.8473 60.6674 43.1125C60.6674 38.3777 59.7906 28.4258 59.3521 24.0417L58.0369 14.8351C58.0369 13.0815 56.8532 9.57422 52.1184 9.57422C47.3836 9.57422 37.4317 9.57422 33.0476 9.57422C31.5132 10.0126 28.4443 11.6786 28.4443 14.8351L27.1291 20.7536" stroke="#8B4513" stroke-width="1.7142"/>
<path d="M23.1836 54.9492H63.9556C64.8324 57.5797 65.4024 62.8406 60.6676 62.8406C55.9327 62.8406 52.9954 62.8406 52.1186 62.8406" stroke="#8B4513" stroke-width="1.7142"/>
<path d="M48.8301 62.8398H23.8408" stroke="#8B4513" stroke-width="1.7142"/>
<path d="M23.8405 54.9492C22.5253 56.0452 20.8161 59.1579 24.4987 62.8406" stroke="#8B4513" stroke-width="1.7142"/>
<path d="M23.1833 61.5258H17.9224L13.9767 57.5801V46.4007M13.9767 46.4007H17.9224V38.5094C17.9224 37.6325 17.1333 35.8789 13.9767 35.8789C10.031 35.8789 8.71582 36.5365 8.71582 38.5094C8.71582 40.0876 8.71582 41.7974 8.71582 42.455L13.9767 46.4007ZM18.58 46.4007V56.2649H22.5257" stroke="#8B4513" stroke-width="1.7142"/>
<path d="M40.9385 54.9497V49.6888H44.8842V54.9497H63.2973L64.6126 56.2649H67.243V45.7431M67.243 45.7431V39.167C67.9006 38.071 69.8735 35.8789 72.5039 35.8789C75.792 35.8789 77.7648 37.8517 77.7648 39.167C77.7648 40.2192 75.5728 43.9895 74.4768 45.7431H72.5039M67.243 45.7431H72.5039M72.5039 45.7431V57.5801L69.2158 60.8682H63.2973" stroke="#8B4513" stroke-width="1.7142"/>
<path d="M45.5436 74.0193V64.1551L45.5435 62.8398H40.2814L40.2827 64.1551V74.0193H24.4987C17.9223 81.253 19.8954 85.8563 21.2106 85.8563C22.2628 85.8563 26.0344 81.9106 27.1305 79.9378H40.2827V85.1987L42.9132 85.8563L45.5436 85.1987V79.9378H58.6959C59.3535 81.9106 61.4577 85.8563 64.6143 85.8563C67.7708 85.8563 64.6143 76.6497 60.0111 74.0193H45.5436Z" stroke="#8B4513" stroke-width="1.7142"/>
</g>
<defs>
<clipPath id="clip0_3168_6908">
<rect width="85.71" height="85.71" fill="white" transform="translate(0.144531 0.144531)"/>
</clipPath>
</defs>
</svg>
