<svg width="86" height="86" viewBox="0 0 86 86" fill="none" xmlns="http://www.w3.org/2000/svg">
<g clip-path="url(#clip0_3168_6883)">
<path d="M8.71387 62.1135V37.7883C12.9856 36.3644 14.0535 39.1727 14.0535 40.7548V62.1135M8.71387 62.1135V67.4531H20.5798L21.7664 62.1135H14.0535M8.71387 62.1135H14.0535M25.3261 52.6207H19.3932V58.5537H59.144M25.3261 52.6207V48.4677H34.2256V52.6207M25.3261 52.6207H34.2256M34.2256 52.6207H52.6177M52.6177 52.6207V48.4677H61.5172V52.6207M52.6177 52.6207H61.5172M61.5172 52.6207H67.4501V58.5537H63.2971M78.1295 67.4531V62.1135H71.6032M78.1295 67.4531V37.7883C75.954 37.5906 71.6032 37.907 71.6032 40.7548C71.6032 43.6026 71.6032 56.1805 71.6032 62.1135M78.1295 67.4531H65.6703L64.4837 62.1135H71.6032M59.144 58.5537L64.4837 85.8453H67.4501L63.2971 58.5537M59.144 58.5537H63.2971M29.4792 20.5828H57.3641V34.2286H29.4792V20.5828ZM25.3261 16.4297H60.9239V38.3816H25.3261V16.4297Z" stroke="#8B4513" stroke-width="1.71429"/>
<path d="M31.8525 34.2306L39.5654 24.1445L43.4218 29.1875M47.2782 34.2306L43.4218 29.1875M43.4218 29.1875L47.8715 25.3311L54.3978 34.2306" stroke="#8B4513" stroke-width="1.71429"/>
<path d="M27.0033 62.1145L27.6998 58.5547H22.3601L18.8003 85.8463H22.3601L25.9586 67.4541M27.0033 62.1145H32.4461C33.435 62.9055 35.4126 65.0809 35.4126 67.4541H33.6327M27.0033 62.1145L25.9586 67.4541M25.9586 67.4541H27.6998M33.6327 67.4541L34.8193 85.8463H31.2596L27.6998 67.4541M33.6327 67.4541H27.6998M51.4316 68.0474C51.4316 66.0698 51.9062 62.1145 53.8048 62.1145C55.7033 62.1145 58.5512 62.1145 59.7377 62.1145L60.9243 68.0474H58.5512M51.4316 68.0474H58.5512M51.4316 68.0474H53.2115L50.8383 85.8463H53.8048L58.5512 68.0474M9.90091 68.0474L9.30762 85.8463H12.8674L16.4272 68.0474H9.90091ZM76.9433 68.0474V85.8463H73.9768L70.4171 68.0474H76.9433Z" stroke="#8B4513" stroke-width="1.71429"/>
</g>
<defs>
<clipPath id="clip0_3168_6883">
<rect width="85.7143" height="85.7143" fill="white" transform="translate(0.142578 0.144531)"/>
</clipPath>
</defs>
</svg>
