<svg width="87" height="86" viewBox="0 0 87 86" fill="none" xmlns="http://www.w3.org/2000/svg">
<g clip-path="url(#clip0_3168_6934)">
<path d="M22.8803 35.5391L19.7206 38.712C19.1326 39.3024 19.6476 40.2997 20.4694 40.1621L24.5701 39.4758C25.3041 39.353 25.8351 40.1598 25.432 40.7854L18.5582 51.4529" stroke="#8B4513" stroke-width="1.7142"/>
<path d="M14.6685 57.2861H11.7871V51.4992H35.5586M14.6685 57.2861V66.6897C15.629 67.8953 17.5499 70.7405 17.5499 72.4765C17.5499 74.2126 17.5499 78.0223 17.5499 79.7101L16.1092 81.1568V85.4969H20.4313V81.1568H21.872V69.5831H20.4313V57.2861M14.6685 57.2861H20.4313M20.4313 57.2861H74.4574V51.4992H51.4063M32.6772 70.3065H30.5162L27.6348 69.5831V64.5196L29.0755 63.0729H55.7283L57.8894 64.5196V69.5831L55.7283 70.3065H52.847M32.6772 70.3065V85.4969H37.7196V70.3065M32.6772 70.3065H37.7196M37.7196 70.3065H47.8045M52.847 70.3065V85.4969H47.8045V70.3065M52.847 70.3065H47.8045M30.2658 7.68246L22.9805 14.5393L21.2663 24.3959L22.9805 36.8239L35.5586 51.4992M35.5586 51.4992H51.4063M51.4063 51.4992L61.9785 36.8239L64.5498 24.3959L63.2642 14.5393L54.6932 7.25391" stroke="#8B4513" stroke-width="1.7142"/>
<path d="M62.7173 35.5391L65.7306 38.1326C66.3628 38.6768 65.9242 39.7116 65.0935 39.6358L61.4085 39.2994C60.7313 39.2376 60.2552 39.9512 60.5724 40.5527L66.3191 51.4529" stroke="#8B4513" stroke-width="1.7142"/>
<path d="M60.6342 24.7386C60.6342 31.3595 58.5895 37.3216 55.3238 41.61C52.0586 45.8977 47.6095 48.4756 42.7623 48.4756C37.915 48.4756 33.4659 45.8977 30.2007 41.61C26.935 37.3216 24.8903 31.3595 24.8903 24.7386C24.8903 18.1178 26.935 12.1557 30.2007 7.86725C33.4659 3.57952 37.915 1.00163 42.7623 1.00163C47.6095 1.00163 52.0586 3.57952 55.3238 7.86725C58.5895 12.1557 60.6342 18.1178 60.6342 24.7386Z" stroke="#8B4513" stroke-width="1.7142"/>
<path d="M34.8389 27.6288L47.0848 19.6719" stroke="#8B4513" stroke-width="1.7142"/>
<path d="M38.4395 32.6991L50.6854 24.7422" stroke="#8B4513" stroke-width="1.7142"/>
<path d="M65.8134 58.0156H71.5762V66.4733C70.4236 67.601 69.175 71.172 68.6948 72.8166V79.8647L70.1355 81.2743V85.5031H65.8134V81.2743H64.3727V69.9974H65.8134V58.0156Z" stroke="#8B4513" stroke-width="1.7142"/>
</g>
<defs>
<clipPath id="clip0_3168_6934">
<rect width="85.71" height="85.71" fill="white" transform="translate(0.644531 0.144531)"/>
</clipPath>
</defs>
</svg>
