<svg width="90" height="90" viewBox="0 0 90 90" fill="none" xmlns="http://www.w3.org/2000/svg">
<path d="M69.4859 18.8828C65.2218 34.5178 60.9972 25.3974 59.4179 18.8828C51.3636 22.6731 56.0619 29.9378 59.4179 33.0964V56.7857H69.4859V33.0964C77.5403 25.5158 72.8419 20.4621 69.4859 18.8828Z" stroke="#8B4513" stroke-width="2"/>
<g style="mix-blend-mode:multiply">
<path d="M34.9117 55.6016H23.5137C22.4091 55.6016 21.5137 56.497 21.5137 57.6016V80.8443C21.5137 81.9488 22.4091 82.8443 23.5137 82.8443H34.9117C36.0163 82.8443 36.9117 81.9488 36.9117 80.8443V57.6016C36.9117 56.497 36.0163 55.6016 34.9117 55.6016Z" stroke="#8B4513" stroke-width="2"/>
</g>
<path d="M37.5039 58.5622L43.7936 58.5617C44.6388 58.5616 45.3823 58.0262 45.7404 57.2606C48.1545 52.0995 53.9091 46.8545 58.8243 48.4929" stroke="#8B4513" stroke-width="2"/>
<path d="M37.5039 79.8822L74.0298 79.3203C75.1222 79.3035 75.999 78.4131 75.999 77.3205V58.7852C75.999 57.6806 75.1036 56.7852 73.999 56.7852H70.6689" stroke="#8B4513" stroke-width="2"/>
<path d="M20.3301 72.1857H17C15.8954 72.1857 15 71.2902 15 70.1857V51.0886C15 49.984 15.8954 49.0886 17 49.0886H28.9903C30.0949 49.0886 30.9903 48.1932 30.9903 47.0886V36.875C30.9903 35.7704 30.0949 34.875 28.9903 34.875H22.3301C21.2255 34.875 20.3301 35.7704 20.3301 36.875V48.4964" stroke="#8B4513" stroke-width="2"/>
<path d="M26.0684 10.0021C26.0684 9.44981 25.6206 9.0021 25.0684 9.0021C24.5161 9.0021 24.0684 9.44981 24.0684 10.0021H26.0684ZM26.0684 33.6914V10.0021H24.0684V33.6914H26.0684Z" fill="#8B4513"/>
<path d="M28.6215 17.5117C29.1738 17.5117 29.6215 17.064 29.6215 16.5117C29.6215 15.9594 29.1738 15.5117 28.6215 15.5117V17.5117ZM22.6992 17.5117H28.6215V15.5117H22.6992V17.5117Z" fill="#8B4513"/>
<path d="M21.5179 15.5165C20.9657 15.5142 20.5161 15.96 20.5137 16.5122C20.5114 17.0645 20.9572 17.5141 21.5095 17.5165L21.5179 15.5165ZM26.848 15.5391L21.5179 15.5165L21.5095 17.5165L26.8395 17.5391L26.848 15.5391Z" fill="#8B4513"/>
<path d="M31.582 39.6122C35.1354 38.4262 39.8733 35.7035 44.6112 50.8646H50.5335" stroke="#8B4513" stroke-width="2"/>
<path d="M29.2129 59.1562V66.263" stroke="#8B4513" stroke-width="2" stroke-linecap="round"/>
<circle cx="29.2142" cy="70.4095" r="1.7767" fill="#8B4513"/>
</svg>
