<svg width="102" height="84" viewBox="0 0 102 84" fill="none" xmlns="http://www.w3.org/2000/svg">
<path d="M95.3597 76.331C94.0715 76.331 92.7793 76.0928 91.4833 75.6166C90.1872 75.1403 89.0903 74.5118 88.1924 73.7311L90.3004 70.5924C91.0109 71.2092 91.819 71.7089 92.7247 72.0915C93.6382 72.4662 94.5087 72.6536 95.3363 72.6536C96.0234 72.6536 96.6011 72.5287 97.0696 72.2788C97.5459 72.029 97.784 71.6972 97.784 71.2834C97.784 71.135 97.7528 71.0023 97.6903 70.8852C97.6278 70.7681 97.5224 70.6588 97.3741 70.5573C97.2257 70.4558 97.0774 70.3699 96.9291 70.2996C96.7807 70.2216 96.566 70.1396 96.2849 70.0537C96.0117 69.9678 95.7735 69.9014 95.5705 69.8546C95.3753 69.7999 95.0904 69.7258 94.7156 69.6321C90.8118 68.6796 88.8599 66.8799 88.8599 64.2331C88.8599 62.7107 89.4572 61.4927 90.6518 60.5792C91.8463 59.6579 93.4235 59.1973 95.3832 59.1973C96.6089 59.1973 97.741 59.3846 98.7794 59.7594C99.8257 60.1342 100.677 60.6261 101.333 61.235L99.4353 64.3854C98.9356 63.9326 98.3149 63.5695 97.5732 63.2962C96.8315 63.0152 96.0858 62.8746 95.3363 62.8746C94.6805 62.8746 94.1457 62.9878 93.7319 63.2143C93.3181 63.4407 93.1112 63.7335 93.1112 64.0926C93.1112 64.4752 93.3532 64.7914 93.8373 65.0412C94.3291 65.2911 95.0045 65.5175 95.8633 65.7205C96.1522 65.783 96.4177 65.8493 96.6597 65.9196C96.9095 65.982 97.2531 66.0914 97.6903 66.2475C98.1353 66.3958 98.5335 66.5598 98.8848 66.7394C99.244 66.919 99.6266 67.1532 100.033 67.4421C100.439 67.7309 100.774 68.0432 101.04 68.379C101.313 68.7147 101.539 69.1207 101.719 69.5969C101.906 70.0732 102 70.5807 102 71.1194C102 72.1344 101.707 73.044 101.122 73.8482C100.536 74.6445 99.7398 75.2574 98.7326 75.6869C97.7254 76.1163 96.6011 76.331 95.3597 76.331Z" fill="#2F4F2F"/>
<path d="M81.7304 76.0306L80.852 73.4189H74.5162L73.6261 76.0306H69.1875L75.2774 59.4824H80.1493L86.2392 76.0306H81.7304ZM75.781 69.6245H79.5755L77.6782 64.0381L75.781 69.6245Z" fill="#2F4F2F"/>
<path d="M61.0384 76.3233C60.0469 76.3233 59.1919 76.1711 58.4736 75.8666V71.955C59.231 72.2127 59.9415 72.3415 60.6051 72.3415C61.3702 72.3415 61.9558 72.1658 62.3618 71.8145C62.7756 71.4553 62.9825 70.9322 62.9825 70.2452V59.4824H67.1049V70.4677C67.1049 72.3025 66.5545 73.739 65.4536 74.7775C64.3527 75.8081 62.881 76.3233 61.0384 76.3233Z" fill="#2F4F2F"/>
<path d="M47.5833 72.1424H54.9029V76.0306H43.4609V59.4824H54.7858V63.3706H47.5833V65.7597H54.0129V69.6479H47.5833V72.1424Z" fill="#2F4F2F"/>
<path d="M101.779 82.3476C101.829 82.2337 101.989 82.2997 101.971 82.3776C101.94 82.5275 101.89 82.8393 101.89 82.8393C101.878 82.9473 101.779 83.0312 101.662 83.0312C101.291 83.0312 99.2712 83.0312 99.1045 83.0312C98.9747 83.0312 98.9933 82.8153 99.1106 82.8153C99.3021 82.8153 99.3763 82.5455 99.3763 82.3836C99.3763 82.1617 99.3763 79.7633 99.3763 79.5114C99.3763 79.2956 99.3207 79.0557 99.1045 79.0557C98.9871 79.0557 98.9871 78.8398 99.1045 78.8398C99.401 78.8398 101.279 78.8398 101.594 78.8398C101.711 78.8398 101.804 78.9238 101.823 79.0317C101.823 79.0317 101.872 79.4095 101.903 79.5534C101.921 79.6373 101.755 79.7033 101.711 79.5834C101.526 79.1337 101.267 79.1337 100.76 79.1337H100.013C100.013 79.3735 100.013 80.0151 100.013 80.6987C100.136 80.6987 100.494 80.6987 100.538 80.6987C100.982 80.6927 101.199 80.6147 101.199 80.3869C101.199 80.255 101.433 80.2669 101.433 80.3809V81.2983C101.433 81.4242 101.199 81.4302 101.199 81.2983C101.199 81.0524 100.982 80.9985 100.538 80.9925C100.494 80.9925 100.148 80.9925 100.013 80.9925C100.013 81.754 100.013 82.6175 100.013 82.7973H100.828C101.334 82.7973 101.594 82.7973 101.779 82.3476Z" fill="#8B4513"/>
<path d="M95.316 82.7854C95.4642 82.7854 95.5013 83.0312 95.3283 83.0312H93.9693C93.8643 83.0312 93.8581 82.7973 94.0063 82.7973C94.1793 82.7973 94.1422 82.5695 94.0249 82.3896C93.9569 82.2937 93.4442 81.5861 93.123 81.1424H92.6658C92.6658 81.742 92.6658 82.2517 92.6658 82.3656C92.6658 82.5815 92.7647 82.8213 92.9685 82.8213C93.0797 82.8213 93.0736 83.0312 92.9685 83.0312C92.672 83.0312 92.0543 83.0312 91.7578 83.0312C91.628 83.0312 91.6466 82.8153 91.7639 82.8153C91.9554 82.8153 92.0296 82.5455 92.0296 82.3836C92.0296 82.1617 92.0296 79.7633 92.0296 79.5114C92.0296 79.2956 91.974 79.0557 91.7578 79.0557C91.6404 79.0557 91.6404 78.8398 91.7578 78.8398C91.9246 78.8398 93.228 78.8398 93.3021 78.8398C94.4511 78.8398 94.9947 79.2596 94.9947 79.9911C94.9947 80.6207 94.5438 80.9565 93.9075 81.0824C94.3523 81.7 94.9144 82.4795 95.0194 82.5995C95.143 82.7374 95.2171 82.7854 95.316 82.7854ZM92.6658 80.9025C92.8697 80.9025 93.1477 80.9025 93.2527 80.9025C93.8396 80.9025 94.2473 80.5188 94.2473 79.9911C94.2473 79.2536 93.6728 79.0737 93.2342 79.0737C93.1044 79.0737 92.9006 79.0737 92.6658 79.0737C92.6658 79.4515 92.6658 80.207 92.6658 80.9025Z" fill="#8B4513"/>
<path d="M87.9536 78.8398C88.0771 78.8398 88.0586 79.0557 87.9474 79.0557C87.7497 79.0557 87.6447 79.3255 87.6447 79.4814C87.6447 79.6553 87.6509 81.6461 87.6509 81.736C87.6509 82.6654 86.9034 83.0252 86.3969 83.0552C85.1243 83.1451 84.7043 82.4196 84.7043 81.5741C84.7043 81.4662 84.6981 79.5894 84.6981 79.5114C84.6981 79.2956 84.6363 79.0557 84.4263 79.0557C84.3027 79.0557 84.3089 78.8458 84.4263 78.8458C84.7228 78.8458 85.3467 78.8458 85.6432 78.8458C85.7606 78.8458 85.7483 79.0617 85.6371 79.0617C85.4394 79.0617 85.3344 79.3255 85.3344 79.4874C85.3344 79.5414 85.322 81.5501 85.3344 81.712C85.3776 82.3896 85.6865 82.7614 86.366 82.7614C87.1073 82.7614 87.3976 82.2577 87.3976 81.772C87.3976 81.5861 87.3976 79.6253 87.3976 79.5114C87.3976 79.2956 87.342 79.0557 87.1258 79.0557C87.0023 79.0557 87.0084 78.8398 87.1258 78.8398C87.4223 78.8398 87.6571 78.8398 87.9536 78.8398Z" fill="#8B4513"/>
<path d="M80.5344 78.8398C80.6827 78.8398 80.8001 78.9538 80.8001 79.0977V79.5774C80.8001 79.7573 80.5653 79.7273 80.5653 79.5834C80.5653 79.2536 80.1267 79.0977 79.6202 79.0977H79.3298C79.3298 79.5834 79.3298 82.0778 79.3298 82.3656C79.3298 82.5815 79.4287 82.8213 79.6325 82.8213C79.7437 82.8213 79.7314 83.0312 79.6325 83.0312C79.336 83.0312 78.7121 83.0312 78.4218 83.0312C78.292 83.0312 78.3106 82.8153 78.4218 82.8153C78.6194 82.8153 78.6936 82.5455 78.6936 82.3776C78.6936 82.1677 78.6936 79.5534 78.6936 79.0977H78.4341C77.9214 79.0977 77.489 79.2596 77.489 79.5834C77.489 79.7273 77.248 79.7573 77.248 79.5834V79.0977C77.248 78.9538 77.3716 78.8398 77.5199 78.8398H78.4897H79.5646H80.5344Z" fill="#8B4513"/>
<path d="M73.5974 82.8213C73.7086 82.8213 73.6963 83.0312 73.5974 83.0312C73.3009 83.0312 72.6832 83.0312 72.3867 83.0312C72.257 83.0312 72.2755 82.8153 72.3929 82.8153C72.5844 82.8153 72.6585 82.5455 72.6585 82.3776C72.6585 82.1617 72.6585 79.7633 72.6585 79.5114C72.6585 79.2956 72.6029 79.0557 72.3867 79.0557C72.2693 79.0557 72.2693 78.8398 72.3867 78.8398C72.6832 78.8398 73.3071 78.8398 73.6036 78.8398C73.721 78.8398 73.7086 79.0557 73.5974 79.0557C73.3998 79.0557 73.2948 79.3255 73.2948 79.4814C73.2948 79.6553 73.2948 82.0598 73.2948 82.3656C73.2948 82.5815 73.3936 82.8213 73.5974 82.8213Z" fill="#8B4513"/>
<path d="M68.5517 78.8398C68.6814 78.8398 68.6814 79.0557 68.5455 79.0557C68.3602 79.0557 68.2799 79.3255 68.2799 79.4934V82.8573C68.2799 82.9532 68.1934 83.0372 68.0945 83.0372H68.0204C67.9339 83.0312 67.8598 82.9952 67.8104 82.9233L65.3209 79.3795C65.3209 80.117 65.3209 82.1318 65.3209 82.3656C65.3209 82.5815 65.4012 82.8213 65.6297 82.8213C65.7409 82.8213 65.7162 83.0312 65.6297 83.0312C65.4691 83.0312 65.3271 83.0312 65.1788 83.0312C65.0491 83.0312 64.9255 83.0312 64.7834 83.0312C64.6599 83.0312 64.6599 82.8153 64.7896 82.8153C64.9749 82.8153 65.0614 82.5455 65.0614 82.3776V79.5114C65.0614 79.2956 64.9688 79.0557 64.7526 79.0557C64.6414 79.0557 64.6105 78.8398 64.7526 78.8398C64.7834 78.8398 65.4197 78.8398 65.6977 78.8398C65.7718 78.8398 65.846 78.8758 65.8892 78.9358L68.0142 81.9039C68.0142 80.9385 68.0204 79.6793 68.0204 79.5054C68.0204 79.2896 67.9339 79.0497 67.7054 79.0497C67.5942 79.0497 67.6189 78.8398 67.7054 78.8398C67.866 78.8398 68.0142 78.8398 68.1563 78.8398C68.286 78.8398 68.4158 78.8398 68.5517 78.8398Z" fill="#8B4513"/>
<path d="M60.9742 82.7854C61.1224 82.7854 61.1595 83.0312 60.9865 83.0312H59.6275C59.5225 83.0312 59.5163 82.7973 59.6645 82.7973C59.8375 82.7973 59.8005 82.5695 59.6831 82.3896C59.6151 82.2937 59.1024 81.5861 58.7812 81.1424H58.3241C58.3241 81.742 58.3241 82.2517 58.3241 82.3656C58.3241 82.5815 58.4229 82.8213 58.6267 82.8213C58.7379 82.8213 58.7318 83.0312 58.6267 83.0312C58.3302 83.0312 57.7125 83.0312 57.416 83.0312C57.2862 83.0312 57.3048 82.8153 57.4222 82.8153C57.6137 82.8153 57.6878 82.5455 57.6878 82.3836C57.6878 82.1617 57.6878 79.7633 57.6878 79.5114C57.6878 79.2956 57.6322 79.0557 57.416 79.0557C57.2986 79.0557 57.2986 78.8398 57.416 78.8398C57.5828 78.8398 58.8862 78.8398 58.9603 78.8398C60.1093 78.8398 60.6529 79.2596 60.6529 79.9911C60.6529 80.6207 60.202 80.9565 59.5657 81.0824C60.0105 81.7 60.5726 82.4795 60.6776 82.5995C60.8012 82.7374 60.8753 82.7854 60.9742 82.7854ZM58.3241 80.9025C58.5279 80.9025 58.8059 80.9025 58.9109 80.9025C59.4978 80.9025 59.9055 80.5188 59.9055 79.9911C59.9055 79.2536 59.331 79.0737 58.8924 79.0737C58.7626 79.0737 58.5588 79.0737 58.3241 79.0737C58.3241 79.4515 58.3241 80.207 58.3241 80.9025Z" fill="#8B4513"/>
<path d="M53.6089 78.8398C53.7324 78.8398 53.7139 79.0557 53.6027 79.0557C53.405 79.0557 53.3 79.3255 53.3 79.4814C53.3 79.6553 53.3062 81.6461 53.3062 81.736C53.3062 82.6654 52.5587 83.0252 52.0522 83.0552C50.7796 83.1451 50.3596 82.4196 50.3596 81.5741C50.3596 81.4662 50.3534 79.5894 50.3534 79.5114C50.3534 79.2956 50.2916 79.0557 50.0816 79.0557C49.958 79.0557 49.9642 78.8458 50.0816 78.8458C50.3781 78.8458 51.002 78.8458 51.2985 78.8458C51.4159 78.8458 51.4035 79.0617 51.2923 79.0617C51.0947 79.0617 50.9896 79.3255 50.9896 79.4874C50.9896 79.5414 50.9773 81.5501 50.9896 81.712C51.0329 82.3896 51.3418 82.7614 52.0213 82.7614C52.7626 82.7614 53.0529 82.2577 53.0529 81.772C53.0529 81.5861 53.0529 79.6253 53.0529 79.5114C53.0529 79.2956 52.9973 79.0557 52.7811 79.0557C52.6575 79.0557 52.6637 78.8398 52.7811 78.8398C53.0776 78.8398 53.3124 78.8398 53.6089 78.8398Z" fill="#8B4513"/>
<path d="M46.3372 79.0317C46.3372 79.0317 46.3866 79.4095 46.4175 79.5534C46.436 79.6373 46.2692 79.7033 46.226 79.5834C46.0406 79.1337 45.775 79.1337 45.2685 79.1337H44.5272C44.5272 79.3915 44.5272 80.0451 44.5272 80.6987C44.6507 80.6987 45.009 80.6987 45.0523 80.6987C45.497 80.6927 45.7132 80.6147 45.7132 80.3869C45.7132 80.255 45.948 80.2669 45.948 80.3809V81.2983C45.948 81.4242 45.7132 81.4242 45.7132 81.2983C45.7132 81.0524 45.497 80.9985 45.0523 80.9925C45.009 80.9925 44.6631 80.9925 44.5272 80.9925C44.5272 81.6161 44.5272 82.2397 44.5272 82.3656C44.5272 82.5815 44.626 82.8213 44.8299 82.8213C44.9411 82.8213 44.9349 83.0312 44.8299 83.0312C44.5334 83.0312 43.9156 83.0312 43.6191 83.0312C43.4894 83.0312 43.5079 82.8153 43.6253 82.8153C43.8168 82.8153 43.8909 82.5455 43.8909 82.3836C43.8909 82.1617 43.8909 79.7633 43.8909 79.5114C43.8909 79.2956 43.8353 79.0557 43.6191 79.0557C43.5017 79.0557 43.5017 78.8398 43.6191 78.8398C43.9156 78.8398 45.7935 78.8398 46.1086 78.8398C46.226 78.8398 46.3186 78.9238 46.3372 79.0317Z" fill="#8B4513"/>
<path d="M26.324 30.5733L58.8066 16.846C64.8525 14.291 67.7625 7.42845 65.4741 1.33974L32.9915 15.067C26.9456 17.6221 24.0356 24.4846 26.324 30.5733Z" fill="#8B4513" stroke="white"/>
<path d="M29.6137 39.7136L40.3323 34.3543V70.6326C40.3323 77.1923 35.1499 82.5417 28.656 82.8098L29.6137 39.7136Z" fill="#2F4F2F" stroke="white"/>
<path d="M5.10768 60.3045L64.2077 35.9941C70.2778 33.4972 73.2535 26.6629 71.0236 20.5525L11.9236 44.8629C5.85342 47.3598 2.8778 54.1941 5.10768 60.3045Z" fill="#8B4513" stroke="white"/>
</svg>
