<svg width="86" height="86" viewBox="0 0 86 86" fill="none" xmlns="http://www.w3.org/2000/svg">
<g clip-path="url(#clip0_3168_6946)">
<path d="M13.2479 46.8203L1.00195 66.2697M1.00195 66.2697H84.5623V85.7191H1.00195V72.0325M1.00195 66.2697V72.0325M1.00195 72.0325H11.0868" stroke="#8B4513" stroke-width="1.7142"/>
<path d="M11.0868 72.0352H1.00195" stroke="#8B4513" stroke-width="1.7142"/>
<path d="M15.4092 72.0352H84.5626" stroke="#8B4513" stroke-width="1.7142"/>
<path d="M84.5619 66.2731L69.4346 41.7812" stroke="#8B4513" stroke-width="1.7142"/>
<path d="M65.833 59.0703H68.7144" stroke="#8B4513" stroke-width="1.7142"/>
<path d="M62.9521 51.8672H65.8335" stroke="#8B4513" stroke-width="1.7142"/>
<path d="M48.5449 51.8672H51.4263" stroke="#8B4513" stroke-width="1.7142"/>
<path d="M49.9854 59.0703H52.8667" stroke="#8B4513" stroke-width="1.7142"/>
<path d="M34.1387 51.8672H37.0201" stroke="#8B4513" stroke-width="1.7142"/>
<path d="M32.6973 59.0703H35.5787" stroke="#8B4513" stroke-width="1.7142"/>
<path d="M16.8496 59.0703H19.731" stroke="#8B4513" stroke-width="1.7142"/>
<path d="M19.7314 51.8672H22.6128" stroke="#8B4513" stroke-width="1.7142"/>
<path d="M14.6885 41.0579C16.3693 35.2951 21.6038 23.7695 29.0954 23.7695C36.5871 23.7695 41.3414 27.1312 42.7821 28.812" stroke="#8B4513" stroke-width="1.7142"/>
<path d="M40.6211 21.6157C46.8641 19.2146 61.2231 16.1411 68.7147 23.0564" stroke="#8B4513" stroke-width="1.7142"/>
<path d="M78.0792 17.2891L69.435 23.0518C64.1525 26.6536 52.5789 33.8571 48.5449 33.8571C43.5025 33.8571 27.6548 35.2978 24.7734 33.8571" stroke="#8B4513" stroke-width="1.7142"/>
<path d="M55.464 36.8984C53.3721 40.8831 47.9332 48.6817 42.9126 47.9986C37.892 47.3155 33.3828 46.0063 31.7558 45.4371C30.1287 44.8678 26.1774 43.217 23.3882 41.1677H14.3232" stroke="#8B4513" stroke-width="1.7142"/>
</g>
<defs>
<clipPath id="clip0_3168_6946">
<rect width="85.71" height="85.71" fill="white" transform="translate(0.144531 0.144531)"/>
</clipPath>
</defs>
</svg>
