<svg width="86" height="86" viewBox="0 0 86 86" fill="none" xmlns="http://www.w3.org/2000/svg">
<g clip-path="url(#clip0_3168_6985)">
<path d="M29.999 52.6523H35.8488M55.5918 52.6523H49.0108M49.0108 52.6523L45.3547 59.9824L44.6235 78.3077M49.0108 52.6523H35.8488M44.6235 78.3077L49.0108 85.6378M44.6235 78.3077H40.2361M40.2361 78.3077L36.58 85.6378M40.2361 78.3077L39.5049 59.9824L35.8488 52.6523" stroke="#8B4513" stroke-width="1.7142"/>
<path d="M45.3547 63.6484H39.5049L40.2361 73.9106H44.6234L45.3547 63.6484Z" stroke="#8B4513" stroke-width="1.7142"/>
<path d="M42.1914 40.5V44.8981" stroke="#8B4513" stroke-width="1.7142"/>
<path d="M42.1914 19.9723V15.5742" stroke="#8B4513" stroke-width="1.7142"/>
<path d="M49.5039 22.9047L53.8912 19.9727" stroke="#8B4513" stroke-width="1.7142"/>
<path d="M52.4287 30.9688H56.816" stroke="#8B4513" stroke-width="1.7142"/>
<path d="M27.5664 30.2305H31.9537" stroke="#8B4513" stroke-width="1.7142"/>
<path d="M49.5039 37.5625L53.8912 40.4945" stroke="#8B4513" stroke-width="1.7142"/>
<path d="M30.4912 19.9727L34.8785 22.9047" stroke="#8B4513" stroke-width="1.7142"/>
<path d="M34.8789 37.5625L30.4916 40.4945" stroke="#8B4513" stroke-width="1.7142"/>
<path d="M31.4616 85.6376C31.3123 83.0179 30.9662 79.5956 30.373 76.1083M21.9555 59.9817V55.5836L20.493 54.1175H4.40578L-0.712891 40.19M21.9555 59.9817C24.0107 59.9817 25.673 61.7264 26.9997 64.3799M21.9555 59.9817V64.3799M-0.712891 40.19L6.59949 59.9817V64.3799M-0.712891 40.19C1.96832 39.9457 7.47698 40.7765 8.06197 46.0542M4.40578 76.1083H6.59949V64.3799M4.40578 76.1083V84.1716M4.40578 76.1083H30.373M30.373 76.1083C29.6482 71.8474 28.5544 67.4896 26.9997 64.3799M6.59949 64.3799H21.9555M26.9997 64.3799H21.9555" stroke="#8B4513" stroke-width="1.7142"/>
<path d="M54.1302 85.6767C54.2795 83.0569 54.6256 79.6346 55.2188 76.1473M63.6363 60.0208V55.6226L65.0988 54.1566H81.186L86.3047 40.2291M63.6363 60.0208C61.5811 60.0208 59.9188 61.7654 58.5921 64.4189M63.6363 60.0208V64.4189M86.3047 40.2291L78.9923 60.0208V64.4189M86.3047 40.2291C83.6235 39.9848 78.1148 40.8155 77.5298 46.0933M81.186 76.1473H78.9923V64.4189M81.186 76.1473V84.2106M81.186 76.1473H55.2188M55.2188 76.1473C55.9436 71.8865 57.0374 67.5286 58.5921 64.4189M78.9923 64.4189H63.6363M58.5921 64.4189H63.6363" stroke="#8B4513" stroke-width="1.7142"/>
<path d="M8.79297 50.4531L11.7179 59.9823H22.6862" stroke="#8B4513" stroke-width="1.7142"/>
<path d="M76.7988 50.4961L73.8739 60.0252H62.9056" stroke="#8B4513" stroke-width="1.7142"/>
<mask id="path-15-inside-1_3168_6985" fill="white">
<path d="M49.1957 32.2322C48.7344 33.9099 47.6955 35.3671 46.2652 36.3428C44.8348 37.3185 43.1065 37.749 41.3898 37.557C39.6732 37.3651 38.0804 36.5634 36.8968 35.2954C35.7132 34.0275 35.0162 32.3762 34.9306 30.6374C34.845 28.8986 35.3764 27.186 36.4297 25.8063C37.4829 24.4266 38.9892 23.4701 40.6786 23.108C42.368 22.746 44.1301 23.0021 45.6492 23.8305C47.1684 24.6589 48.3453 26.0054 48.9691 27.6289L47.7106 28.1201C47.2026 26.7981 46.2442 25.7015 45.0071 25.0269C43.77 24.3523 42.3351 24.1438 40.9593 24.4386C39.5836 24.7334 38.357 25.5124 37.4993 26.6359C36.6416 27.7594 36.2088 29.1541 36.2785 30.5701C36.3482 31.986 36.9158 33.3307 37.8797 34.3633C38.8435 35.3958 40.1406 36.0487 41.5385 36.205C42.9365 36.3613 44.3439 36.0108 45.5087 35.2162C46.6735 34.4216 47.5195 33.235 47.8952 31.8688L49.1957 32.2322Z"/>
</mask>
<path d="M49.1957 32.2322C48.7344 33.9099 47.6955 35.3671 46.2652 36.3428C44.8348 37.3185 43.1065 37.749 41.3898 37.557C39.6732 37.3651 38.0804 36.5634 36.8968 35.2954C35.7132 34.0275 35.0162 32.3762 34.9306 30.6374C34.845 28.8986 35.3764 27.186 36.4297 25.8063C37.4829 24.4266 38.9892 23.4701 40.6786 23.108C42.368 22.746 44.1301 23.0021 45.6492 23.8305C47.1684 24.6589 48.3453 26.0054 48.9691 27.6289L47.7106 28.1201C47.2026 26.7981 46.2442 25.7015 45.0071 25.0269C43.77 24.3523 42.3351 24.1438 40.9593 24.4386C39.5836 24.7334 38.357 25.5124 37.4993 26.6359C36.6416 27.7594 36.2088 29.1541 36.2785 30.5701C36.3482 31.986 36.9158 33.3307 37.8797 34.3633C38.8435 35.3958 40.1406 36.0487 41.5385 36.205C42.9365 36.3613 44.3439 36.0108 45.5087 35.2162C46.6735 34.4216 47.5195 33.235 47.8952 31.8688L49.1957 32.2322Z" fill="#8B4513" stroke="#8B4513" stroke-width="3.4284" mask="url(#path-15-inside-1_3168_6985)"/>
</g>
<defs>
<clipPath id="clip0_3168_6985">
<rect width="85.71" height="85.71" fill="white" transform="translate(0.144531 0.144531)"/>
</clipPath>
</defs>
</svg>
