<svg width="86" height="86" viewBox="0 0 86 86" fill="none" xmlns="http://www.w3.org/2000/svg">
<g clip-path="url(#clip0_3168_6973)">
<path d="M13.968 45.7578H24.7732H29.0953H62.2313V55.8427H10.3662V50.0799C10.3662 47.7748 12.7674 46.238 13.968 45.7578Z" stroke="#8B4513" stroke-width="1.7142"/>
<path d="M47.8242 45.7571L59.3498 28.4688L66.5533 31.3501L59.3498 45.7571" stroke="#8B4513" stroke-width="1.7142"/>
<path d="M66.5536 31.351L75.9181 19.1051C74.4774 17.4243 71.1638 14.2068 69.435 14.783C67.2739 15.5034 57.9094 20.5452 59.3501 28.469" stroke="#8B4513" stroke-width="1.7142"/>
<path d="M84.5619 27.6567L85.296 28.0991L85.6586 27.4974L85.1398 27.0238L84.5619 27.6567ZM62.2311 64.712L61.497 64.2696L61.374 64.4737V64.712H62.2311ZM62.2311 71.1255H61.374V71.2879L61.4334 71.439L62.2311 71.1255ZM66.4759 84.2659C66.649 84.7064 67.1466 84.9232 67.5871 84.75C68.0277 84.5768 68.2444 84.0793 68.0712 83.6387L66.4759 84.2659ZM74.6194 19.7384L83.9839 28.2896L85.1398 27.0238L75.7753 18.4725L74.6194 19.7384ZM83.8278 27.2143L61.497 64.2696L62.9652 65.1544L85.296 28.0991L83.8278 27.2143ZM61.374 64.712V71.1255H63.0882V64.712H61.374ZM61.4334 71.439L66.4759 84.2659L68.0712 83.6387L63.0288 70.8119L61.4334 71.439ZM62.3678 85.3775V55.4482H60.6536V85.3775H62.3678Z" fill="#8B4513"/>
<path d="M62.2315 86.0961H14.6885V55.1211H62.2315" stroke="#8B4513" stroke-width="1.7142"/>
<path d="M14.6886 60.1641L1.00195 74.571" stroke="#8B4513" stroke-width="1.7142"/>
<path d="M1.00195 73.1298L7.40505 79.6129L15.4089 70.9688" stroke="#8B4513" stroke-width="1.7142"/>
</g>
<defs>
<clipPath id="clip0_3168_6973">
<rect width="85.71" height="85.71" fill="white" transform="translate(0.144531 0.144531)"/>
</clipPath>
</defs>
</svg>
