<svg width="86" height="86" viewBox="0 0 86 86" fill="none" xmlns="http://www.w3.org/2000/svg">
<g clip-path="url(#clip0_3168_6928)">
<path d="M9.75228 45.9279C9.27284 42.0924 11.2011 35.1406 16.9543 35.1406C22.7076 35.1406 52.6723 35.1406 69.4525 35.1406C72.2962 35.1406 76.6663 37.8734 76.6663 45.9279M9.75228 45.9279C3.99913 45.9279 2.35394 49.5237 2.5936 50.962V81.1664H7.62771M9.75228 45.9279C12.1494 45.9279 16.2575 47.51 16.2575 50.962C16.2575 53.0542 16.2575 57.1896 16.2575 61.0301M76.6663 45.9279C78.8238 45.9279 83.1387 46.9347 83.1387 50.962C83.1387 54.9892 83.1387 72.7763 83.1387 81.1664H78.1046M76.6663 45.9279C71.4884 45.9279 70.194 49.284 70.194 50.962V61.0301M16.2575 61.0301C16.2575 63.526 16.2575 65.8973 16.2575 67.5025H70.194V61.0301M16.2575 61.0301C16.737 59.3521 18.5588 55.996 22.0108 55.996C25.4627 55.996 51.7357 55.996 64.4408 55.996C66.3585 56.2358 70.194 57.5782 70.194 61.0301M7.62771 81.1664V85.4813H11.9426V81.1664M7.62771 81.1664H11.9426M11.9426 81.1664H73.7897M73.7897 81.1664V85.4813H78.1046V81.1664M73.7897 81.1664H78.1046" stroke="#8B4513" stroke-width="1.7142"/>
</g>
<defs>
<clipPath id="clip0_3168_6928">
<rect width="85.71" height="85.71" fill="white"/>
</clipPath>
</defs>
</svg>
