<svg width="86" height="86" viewBox="0 0 86 86" fill="none" xmlns="http://www.w3.org/2000/svg">
<g clip-path="url(#clip0_3168_7005)">
<path d="M2.85752 44.3566H0V40.0703H83.956V44.3566H81.4394M2.85752 44.3566V84.8199H7.14381V44.3566M2.85752 44.3566H7.14381M7.14381 44.3566H52.8642M52.8642 44.3566H77.1531M52.8642 44.3566V58.6442M77.1531 72.9318H76.4388H52.8642V58.6442M77.1531 72.9318V84.8199H81.4394V44.3566M77.1531 72.9318V58.6442M81.4394 44.3566H77.1531M77.1531 44.3566V58.6442M77.1531 58.6442H52.8642" stroke="#8B4513" stroke-width="1.7"/>
<path d="M62.1514 51.4961H67.8664" stroke="#8B4513" stroke-width="1.7"/>
<path d="M62.1514 65.7852H67.8664" stroke="#8B4513" stroke-width="1.7"/>
<path d="M18.5742 35.0693H22.1461L23.5749 39.3556H9.28726L10.716 35.0693H14.2879M18.5742 35.0693V23.6392M18.5742 35.0693H14.2879M18.5742 23.6392H27.1468L22.8605 9.35156H10.0016L5.00098 23.6392H14.2879M18.5742 23.6392H14.2879M14.2879 23.6392V35.0693M42.1488 39.3556V32.9261M42.1488 32.9261H37.1481V26.4967H42.1488M42.1488 32.9261H55.722M62.8658 26.4967H61.4371M55.722 26.4967V32.9261M55.722 26.4967H61.4371M55.722 26.4967H42.1488M55.722 32.9261H60.7227M62.8658 32.9261H60.7227M60.7227 32.9261V39.3556M61.4371 26.4967V19.3529H42.1488M42.1488 19.3529V26.4967M42.1488 19.3529H62.8658" stroke="#8B4513" stroke-width="1.7"/>
<path d="M69.2949 27.9253H72.1524V32.2116M72.1524 39.3554V32.2116M72.1524 32.2116H75.7244M77.1531 39.3554V32.2116H75.7244M75.7244 32.2116V29.3541H77.8675V27.2109" stroke="#8B4513" stroke-width="1.7"/>
</g>
<defs>
<clipPath id="clip0_3168_7005">
<rect width="85.71" height="85.71" fill="white"/>
</clipPath>
</defs>
</svg>
