<svg width="87" height="86" viewBox="0 0 87 86" fill="none" xmlns="http://www.w3.org/2000/svg">
<g clip-path="url(#clip0_3168_6891)">
<path d="M9.28739 41.8224H5.93821L4.78138 39.2952C4.65981 39.0296 4.56571 38.7523 4.50054 38.4676L4.12005 36.8052C3.99374 36.2534 3.97802 35.682 4.0738 35.124L4.50402 32.6178C4.56677 32.2523 4.67672 31.8964 4.8311 31.5592L5.93821 29.1406H81.6295L82.4373 30.317C82.7877 30.8274 83.0234 31.4076 83.1282 32.0178L83.5145 34.2687C83.5969 34.7485 83.5969 35.2389 83.5145 35.7188L83.0637 38.3451C83.0009 38.7107 82.891 39.0666 82.7366 39.4038L81.6295 41.8224H78.2803M9.28739 41.8224V85.7207H13.3064L16.6407 54.5041M9.28739 41.8224H17.9952M17.9952 41.8224L16.6407 54.5041M17.9952 41.8224H68.2328M16.6407 54.5041H69.5725M69.5725 54.5041L68.2328 41.8224M69.5725 54.5041L73.5915 85.7207H78.2803V41.8224M68.2328 41.8224H78.2803" stroke="#8B4513" stroke-width="1.7142"/>
</g>
<defs>
<clipPath id="clip0_3168_6891">
<rect width="85.71" height="85.71" fill="white" transform="translate(0.5)"/>
</clipPath>
</defs>
</svg>
