<svg width="86" height="86" viewBox="0 0 86 86" fill="none" xmlns="http://www.w3.org/2000/svg">
<g clip-path="url(#clip0_3168_6897)">
<path d="M11.9851 14.1402H8.08008V8.93359H77.9195V14.1402H74.4649M11.9851 14.1402H32.8117M11.9851 14.1402V60.3493M74.4649 14.1402V81.1758H73.1632M74.4649 14.1402H53.6383M13.2867 81.1758H11.9851V70.7625M13.2867 81.1758V85.7317H73.1632V81.1758M13.2867 81.1758H32.8117M73.1632 81.1758H53.6383M53.6383 81.1758V14.1402M53.6383 81.1758H32.8117M53.6383 14.1402H32.8117M32.8117 14.1402V60.3493M32.8117 81.1758V70.7625M11.9851 70.7625H32.8117M11.9851 70.7625V60.3493M32.8117 70.7625V60.3493M32.8117 60.3493H11.9851M19.795 65.5559H25.0017" stroke="#8B4513" stroke-width="1.7034"/>
<path d="M19.7949 75.9688H25.0016" stroke="#8B4513" stroke-width="1.7034"/>
<path d="M19.7949 65.5586H25.0016" stroke="#8B4513" stroke-width="1.7034"/>
<path d="M19.1438 25.8553L23.0488 21.2995M15.8896 17.3945H28.9063V56.4444H15.8896V17.3945Z" stroke="#8B4513" stroke-width="1.7034"/>
<path d="M20.4463 31.0597L24.3513 26.5039" stroke="#8B4513" stroke-width="1.7034"/>
<path d="M49.7332 36.918H47.1299V46.6804H49.7332V36.918Z" stroke="#8B4513" stroke-width="1.7034"/>
<path d="M57.5432 46.6804V36.918H60.1465V46.6804H57.5432Z" stroke="#8B4513" stroke-width="1.7034"/>
</g>
<defs>
<clipPath id="clip0_3168_6897">
<rect width="85.17" height="85.17" fill="white" transform="translate(0.415039 0.414062)"/>
</clipPath>
</defs>
</svg>
